
<svg viewBox="0 0 940 230" xmlns="http://www.w3.org/2000/svg" role="img" aria-label="driftless">
  <defs>
    <radialGradient id="wg_wlt" cx="50%" cy="50%" r="50%">
      <stop offset="0" stop-color="#F4C79A"></stop><stop offset="0.5" stop-color="#E2925E"></stop><stop offset="1" stop-color="#E2925E" stop-opacity="0"></stop>
    </radialGradient>
    
  </defs>
  <g transform="translate(8,8) scale(0.42)"><path d="M 257.42 251.63 L 257.25 251.55 L 257.08 251.47 L 256.91 251.41 L 256.73 251.34 L 256.55 251.29 L 256.36 251.24 L 256.17 251.20 L 255.98 251.16 L 255.79 251.13 L 255.59 251.11 L 255.39 251.10" stroke="#5B5A8C" stroke-opacity="0.140" stroke-width="5.00" stroke-linecap="round" fill="none"></path><path d="M 255.39 251.10 L 255.19 251.10 L 254.99 251.10 L 254.79 251.11 L 254.59 251.13 L 254.38 251.16 L 254.18 251.20 L 253.98 251.24 L 253.78 251.30 L 253.57 251.36 L 253.37 251.43 L 253.18 251.51" stroke="#5B5A8C" stroke-opacity="0.143" stroke-width="5.02" stroke-linecap="round" fill="none"></path><path d="M 253.18 251.51 L 252.98 251.60 L 252.79 251.69 L 252.59 251.79 L 252.41 251.91 L 252.22 252.03 L 252.04 252.16 L 251.86 252.29 L 251.69 252.44 L 251.52 252.59 L 251.36 252.75 L 251.20 252.91" stroke="#5B5A8C" stroke-opacity="0.148" stroke-width="5.07" stroke-linecap="round" fill="none"></path><path d="M 251.20 252.91 L 251.05 253.09 L 250.91 253.27 L 250.77 253.46 L 250.64 253.65 L 250.51 253.85 L 250.39 254.06 L 250.28 254.27 L 250.18 254.49 L 250.09 254.72 L 250.00 254.95 L 249.93 255.18" stroke="#5B5A8C" stroke-opacity="0.154" stroke-width="5.13" stroke-linecap="round" fill="none"></path><path d="M 249.93 255.18 L 249.86 255.42 L 249.80 255.66 L 249.75 255.91 L 249.71 256.16 L 249.68 256.41 L 249.66 256.67 L 249.65 256.92 L 249.65 257.18 L 249.66 257.45 L 249.68 257.71 L 249.71 257.97" stroke="#5B5A8C" stroke-opacity="0.161" stroke-width="5.21" stroke-linecap="round" fill="none"></path><path d="M 249.71 257.97 L 249.76 258.23 L 249.81 258.50 L 249.87 258.76 L 249.95 259.02 L 250.03 259.28 L 250.13 259.54 L 250.24 259.79 L 250.36 260.05 L 250.49 260.30 L 250.63 260.54 L 250.78 260.78" stroke="#5B5A8C" stroke-opacity="0.169" stroke-width="5.30" stroke-linecap="round" fill="none"></path><path d="M 250.78 260.78 L 250.94 261.02 L 251.11 261.25 L 251.29 261.48 L 251.48 261.70 L 251.69 261.91 L 251.90 262.12 L 252.12 262.32 L 252.35 262.51 L 252.59 262.69 L 252.84 262.87 L 253.09 263.04" stroke="#5B5A8C" stroke-opacity="0.177" stroke-width="5.40" stroke-linecap="round" fill="none"></path><path d="M 253.09 263.04 L 253.36 263.19 L 253.63 263.34 L 253.91 263.48 L 254.20 263.61 L 254.49 263.72 L 254.79 263.83 L 255.10 263.92 L 255.41 264.00 L 255.73 264.07 L 256.05 264.13 L 256.38 264.17" stroke="#5B5A8C" stroke-opacity="0.186" stroke-width="5.51" stroke-linecap="round" fill="none"></path><path d="M 256.38 264.17 L 256.71 264.21 L 257.04 264.23 L 257.37 264.23 L 257.71 264.22 L 258.05 264.20 L 258.39 264.17 L 258.73 264.12 L 259.07 264.06 L 259.41 263.98 L 259.75 263.89 L 260.09 263.79 L 260.43 263.67" stroke="#5B5A8C" stroke-opacity="0.195" stroke-width="5.63" stroke-linecap="round" fill="none"></path><path d="M 260.43 263.67 L 260.76 263.53 L 261.09 263.39 L 261.41 263.23 L 261.74 263.05 L 262.05 262.86 L 262.36 262.66 L 262.66 262.44 L 262.96 262.21 L 263.25 261.97 L 263.53 261.72 L 263.80 261.45" stroke="#5B5A8C" stroke-opacity="0.205" stroke-width="5.76" stroke-linecap="round" fill="none"></path><path d="M 263.80 261.45 L 264.07 261.17 L 264.32 260.87 L 264.56 260.57 L 264.80 260.25 L 265.02 259.92 L 265.23 259.59 L 265.42 259.24 L 265.61 258.88 L 265.78 258.51 L 265.94 258.13 L 266.08 257.75" stroke="#5B5A8C" stroke-opacity="0.216" stroke-width="5.90" stroke-linecap="round" fill="none"></path><path d="M 266.08 257.75 L 266.21 257.35 L 266.32 256.95 L 266.42 256.55 L 266.50 256.13 L 266.57 255.71 L 266.62 255.29 L 266.65 254.86 L 266.67 254.42 L 266.66 253.99 L 266.65 253.55 L 266.61 253.11" stroke="#5B5A8C" stroke-opacity="0.226" stroke-width="6.05" stroke-linecap="round" fill="none"></path><path d="M 266.61 253.11 L 266.56 252.67 L 266.48 252.23 L 266.39 251.78 L 266.28 251.34 L 266.16 250.90 L 266.01 250.47 L 265.85 250.04 L 265.67 249.61 L 265.47 249.18 L 265.25 248.76 L 265.01 248.35" stroke="#5B5A8C" stroke-opacity="0.237" stroke-width="6.21" stroke-linecap="round" fill="none"></path><path d="M 265.01 248.35 L 264.76 247.95 L 264.49 247.55 L 264.20 247.16 L 263.89 246.78 L 263.57 246.41 L 263.23 246.05 L 262.87 245.71 L 262.50 245.37 L 262.11 245.05 L 261.71 244.74 L 261.29 244.45" stroke="#5B5A8C" stroke-opacity="0.249" stroke-width="6.37" stroke-linecap="round" fill="none"></path><path d="M 261.29 244.45 L 260.86 244.17 L 260.41 243.91 L 259.95 243.66 L 259.48 243.43 L 259.00 243.22 L 258.50 243.02 L 258.00 242.85 L 257.48 242.69 L 256.96 242.56 L 256.43 242.44 L 255.89 242.34" stroke="#5B5A8C" stroke-opacity="0.261" stroke-width="6.54" stroke-linecap="round" fill="none"></path><path d="M 255.89 242.34 L 255.34 242.27 L 254.78 242.22 L 254.23 242.19 L 253.66 242.18 L 253.09 242.19 L 252.52 242.23 L 251.95 242.29 L 251.38 242.37 L 250.81 242.47 L 250.24 242.60 L 249.67 242.76" stroke="#5B5A8C" stroke-opacity="0.273" stroke-width="6.73" stroke-linecap="round" fill="none"></path><path d="M 249.67 242.76 L 249.10 242.93 L 248.54 243.13 L 247.98 243.36 L 247.43 243.61 L 246.88 243.88 L 246.34 244.17 L 245.81 244.49 L 245.29 244.83 L 244.78 245.20 L 244.29 245.58 L 243.80 245.99" stroke="#5B5A8C" stroke-opacity="0.286" stroke-width="6.91" stroke-linecap="round" fill="none"></path><path d="M 243.80 245.99 L 243.33 246.42 L 242.87 246.88 L 242.43 247.35 L 242.01 247.84 L 241.60 248.36 L 241.21 248.89 L 240.84 249.44 L 240.49 250.01 L 240.16 250.59 L 239.85 251.20 L 239.56 251.82 L 239.30 252.45" stroke="#5B5A8C" stroke-opacity="0.299" stroke-width="7.11" stroke-linecap="round" fill="none"></path><path d="M 239.30 252.45 L 239.06 253.10 L 238.85 253.76 L 238.66 254.43 L 238.50 255.12 L 238.36 255.82 L 238.25 256.52 L 238.17 257.23 L 238.11 257.96 L 238.09 258.68 L 238.09 259.42 L 238.13 260.15" stroke="#5B5A8C" stroke-opacity="0.312" stroke-width="7.31" stroke-linecap="round" fill="none"></path><path d="M 238.13 260.15 L 238.19 260.89 L 238.28 261.63 L 238.40 262.38 L 238.56 263.12 L 238.74 263.86 L 238.96 264.59 L 239.20 265.33 L 239.48 266.05 L 239.78 266.77 L 240.12 267.49 L 240.49 268.19" stroke="#5B5A8C" stroke-opacity="0.326" stroke-width="7.52" stroke-linecap="round" fill="none"></path><path d="M 240.49 268.19 L 240.89 268.88 L 241.32 269.56 L 241.77 270.23 L 242.26 270.88 L 242.78 271.51 L 243.32 272.13 L 243.90 272.73 L 244.50 273.32 L 245.12 273.88 L 245.78 274.42 L 246.45 274.93" stroke="#5B5A8C" stroke-opacity="0.339" stroke-width="7.73" stroke-linecap="round" fill="none"></path><path d="M 246.45 274.93 L 247.16 275.42 L 247.88 275.89 L 248.63 276.33 L 249.40 276.74 L 250.20 277.13 L 251.01 277.48 L 251.84 277.81 L 252.69 278.10 L 253.56 278.36 L 254.44 278.59 L 255.33 278.78" stroke="#5B5A8C" stroke-opacity="0.353" stroke-width="7.96" stroke-linecap="round" fill="none"></path><path d="M 255.33 278.78 L 256.24 278.94 L 257.16 279.06 L 258.09 279.15 L 259.03 279.20 L 259.98 279.21 L 260.93 279.19 L 261.89 279.13 L 262.85 279.02 L 263.81 278.88 L 264.77 278.70 L 265.73 278.48" stroke="#5B5A8C" stroke-opacity="0.368" stroke-width="8.18" stroke-linecap="round" fill="none"></path><path d="M 265.73 278.48 L 266.69 278.22 L 267.64 277.92 L 268.58 277.59 L 269.52 277.21 L 270.45 276.79 L 271.36 276.33 L 272.27 275.83 L 273.16 275.30 L 274.03 274.72 L 274.88 274.11 L 275.72 273.46" stroke="#5B5A8C" stroke-opacity="0.382" stroke-width="8.42" stroke-linecap="round" fill="none"></path><path d="M 275.72 273.46 L 276.53 272.77 L 277.32 272.04 L 278.09 271.28 L 278.83 270.49 L 279.54 269.66 L 280.22 268.79 L 280.87 267.90 L 281.49 266.97 L 282.08 266.01 L 282.63 265.02 L 283.15 264.01" stroke="#5B5A8C" stroke-opacity="0.397" stroke-width="8.66" stroke-linecap="round" fill="none"></path><path d="M 283.15 264.01 L 283.63 262.97 L 284.06 261.90 L 284.46 260.81 L 284.82 259.70 L 285.14 258.57 L 285.41 257.42 L 285.64 256.25 L 285.82 255.06 L 285.95 253.86 L 286.04 252.65 L 286.08 251.43" stroke="#5B5A8C" stroke-opacity="0.412" stroke-width="8.91" stroke-linecap="round" fill="none"></path><path d="M 286.08 251.43 L 286.07 250.20 L 286.01 248.96 L 285.90 247.72 L 285.75 246.47 L 285.54 245.23 L 285.28 243.98 L 284.96 242.74 L 284.60 241.50 L 284.19 240.27 L 283.72 239.05 L 283.20 237.85 L 282.63 236.65" stroke="#5B5A8C" stroke-opacity="0.428" stroke-width="9.16" stroke-linecap="round" fill="none"></path><path d="M 282.63 236.65 L 282.01 235.47 L 281.34 234.31 L 280.62 233.17 L 279.85 232.05 L 279.03 230.96 L 278.16 229.89 L 277.24 228.85 L 276.28 227.85 L 275.27 226.87 L 274.21 225.93 L 273.11 225.03" stroke="#5B5A8C" stroke-opacity="0.443" stroke-width="9.42" stroke-linecap="round" fill="none"></path><path d="M 273.11 225.03 L 271.97 224.16 L 270.79 223.34 L 269.57 222.56 L 268.31 221.82 L 267.01 221.13 L 265.68 220.49 L 264.31 219.89 L 262.91 219.35 L 261.48 218.86 L 260.03 218.43 L 258.55 218.05" stroke="#5B5A8C" stroke-opacity="0.459" stroke-width="9.68" stroke-linecap="round" fill="none"></path><path d="M 258.55 218.05 L 257.04 217.73 L 255.52 217.47 L 253.97 217.26 L 252.41 217.12 L 250.83 217.04 L 249.24 217.02 L 247.64 217.06 L 246.03 217.17 L 244.42 217.35 L 242.80 217.59 L 241.19 217.89" stroke="#5B5A8C" stroke-opacity="0.475" stroke-width="9.95" stroke-linecap="round" fill="none"></path><path d="M 241.19 217.89 L 239.58 218.27 L 237.97 218.71 L 236.37 219.21 L 234.79 219.78 L 233.21 220.42 L 231.66 221.13 L 230.12 221.90 L 228.60 222.74 L 227.11 223.65 L 225.65 224.62 L 224.22 225.65" stroke="#5B5A8C" stroke-opacity="0.492" stroke-width="10.23" stroke-linecap="round" fill="none"></path><path d="M 224.22 225.65 L 222.82 226.75 L 221.46 227.91 L 220.13 229.13 L 218.85 230.41 L 217.61 231.75 L 216.41 233.14 L 215.27 234.60 L 214.18 236.10 L 213.14 237.66 L 212.15 239.27 L 211.23 240.93" stroke="#5B5A8C" stroke-opacity="0.508" stroke-width="10.51" stroke-linecap="round" fill="none"></path><path d="M 211.23 240.93 L 210.37 242.64 L 209.57 244.39 L 208.83 246.18 L 208.17 248.01 L 207.57 249.88 L 207.05 251.79 L 206.59 253.72 L 206.22 255.69 L 205.92 257.68 L 205.69 259.69 L 205.55 261.73" stroke="#5B5A8C" stroke-opacity="0.525" stroke-width="10.80" stroke-linecap="round" fill="none"></path><path d="M 205.55 261.73 L 205.49 263.78 L 205.51 265.85 L 205.61 267.93 L 205.79 270.02 L 206.06 272.11 L 206.42 274.20 L 206.86 276.29 L 207.39 278.38 L 208.01 280.45 L 208.71 282.52 L 209.49 284.57" stroke="#5B5A8C" stroke-opacity="0.542" stroke-width="11.09" stroke-linecap="round" fill="none"></path><path d="M 209.49 284.57 L 210.37 286.59 L 211.33 288.60 L 212.38 290.58 L 213.51 292.52 L 214.73 294.44 L 216.03 296.31 L 217.41 298.15 L 218.87 299.93 L 220.42 301.68 L 222.04 303.37 L 223.74 305.00" stroke="#5B5A8C" stroke-opacity="0.559" stroke-width="11.39" stroke-linecap="round" fill="none"></path><path d="M 223.74 305.00 L 225.52 306.58 L 227.36 308.09 L 229.28 309.54 L 231.27 310.92 L 233.33 312.23 L 235.45 313.46 L 237.63 314.61 L 239.87 315.69 L 242.17 316.68 L 244.52 317.59 L 246.92 318.40 L 249.37 319.13" stroke="#5B5A8C" stroke-opacity="0.576" stroke-width="11.69" stroke-linecap="round" fill="none"></path><path d="M 249.37 319.13 L 251.85 319.76 L 254.38 320.29 L 256.95 320.73 L 259.55 321.07 L 262.17 321.30 L 264.82 321.43 L 267.50 321.46 L 270.18 321.38 L 272.88 321.19 L 275.59 320.89 L 278.30 320.48" stroke="#5B5A8C" stroke-opacity="0.594" stroke-width="12.00" stroke-linecap="round" fill="none"></path><path d="M 278.30 320.48 L 281.01 319.96 L 283.72 319.33 L 286.42 318.59 L 289.10 317.73 L 291.76 316.76 L 294.40 315.68 L 297.02 314.49 L 299.60 313.19 L 302.14 311.77 L 304.64 310.25 L 307.09 308.61" stroke="#5B5A8C" stroke-opacity="0.612" stroke-width="12.32" stroke-linecap="round" fill="none"></path><path d="M 307.09 308.61 L 309.50 306.87 L 311.84 305.02 L 314.13 303.07 L 316.35 301.02 L 318.50 298.86 L 320.58 296.61 L 322.58 294.26 L 324.50 291.81 L 326.33 289.27 L 328.07 286.65 L 329.71 283.94" stroke="#5B5A8C" stroke-opacity="0.630" stroke-width="12.63" stroke-linecap="round" fill="none"></path><path d="M 329.71 283.94 L 331.26 281.15 L 332.70 278.28 L 334.04 275.34 L 335.27 272.33 L 336.38 269.25 L 337.37 266.11 L 338.25 262.91 L 339.00 259.65 L 339.63 256.35 L 340.13 253.00 L 340.50 249.62" stroke="#5B5A8C" stroke-opacity="0.648" stroke-width="12.96" stroke-linecap="round" fill="none"></path><path d="M 340.50 249.62 L 340.73 246.20 L 340.83 242.75 L 340.79 239.27 L 340.61 235.78 L 340.29 232.28 L 339.83 228.76 L 339.22 225.25 L 338.47 221.74 L 337.58 218.24 L 336.54 214.75 L 335.35 211.29" stroke="#5B5A8C" stroke-opacity="0.666" stroke-width="13.29" stroke-linecap="round" fill="none"></path><path d="M 335.35 211.29 L 334.02 207.85 L 332.55 204.45 L 330.92 201.08 L 329.16 197.77 L 327.25 194.50 L 325.20 191.29 L 323.01 188.14 L 320.68 185.07 L 318.21 182.07 L 315.61 179.15 L 312.88 176.31" stroke="#5B5A8C" stroke-opacity="0.685" stroke-width="13.62" stroke-linecap="round" fill="none"></path><path d="M 312.88 176.31 L 310.02 173.57 L 307.03 170.93 L 303.92 168.40 L 300.69 165.97 L 297.34 163.66 L 293.89 161.47 L 290.32 159.41 L 286.65 157.47 L 282.88 155.67 L 279.02 154.02 L 275.07 152.50" stroke="#5B5A8C" stroke-opacity="0.703" stroke-width="13.96" stroke-linecap="round" fill="none"></path><path d="M 275.07 152.50 L 271.04 151.14 L 266.92 149.93 L 262.74 148.88 L 258.49 147.99 L 254.18 147.27 L 249.81 146.71 L 245.40 146.32 L 240.95 146.11 L 236.46 146.08 L 231.94 146.23 L 227.41 146.55" stroke="#5B5A8C" stroke-opacity="0.722" stroke-width="14.30" stroke-linecap="round" fill="none"></path><path d="M 227.41 146.55 L 222.86 147.06 L 218.31 147.76 L 213.75 148.64 L 209.21 149.71 L 204.68 150.97 L 200.18 152.42 L 195.71 154.05 L 191.28 155.88 L 186.89 157.89 L 182.56 160.09 L 178.30 162.47 L 174.10 165.04" stroke="#5B5A8C" stroke-opacity="0.741" stroke-width="14.65" stroke-linecap="round" fill="none"></path><path d="M 174.10 165.04 L 169.99 167.80 L 165.96 170.73 L 162.02 173.84 L 158.19 177.13 L 154.46 180.59 L 150.85 184.22 L 147.37 188.02 L 144.02 191.97 L 140.81 196.09 L 137.74 200.35 L 134.83 204.76" stroke="#5B5A8C" stroke-opacity="0.760" stroke-width="15.01" stroke-linecap="round" fill="none"></path><path d="M 134.83 204.76 L 132.07 209.32 L 129.49 214.01 L 127.07 218.84 L 124.84 223.78 L 122.79 228.85 L 120.93 234.03 L 119.27 239.31 L 117.81 244.69 L 116.55 250.16 L 115.51 255.71 L 114.69 261.33" stroke="#5B5A8C" stroke-opacity="0.780" stroke-width="15.36" stroke-linecap="round" fill="none"></path><path d="M 114.69 261.33 L 114.08 267.02 L 113.70 272.77 L 113.55 278.56 L 113.63 284.40 L 113.94 290.26 L 114.49 296.15 L 115.28 302.05 L 116.31 307.95 L 117.58 313.85 L 119.09 319.72 L 120.85 325.58" stroke="#5B5A8C" stroke-opacity="0.799" stroke-width="15.73" stroke-linecap="round" fill="none"></path><path d="M 120.85 325.58 L 122.86 331.39 L 125.10 337.16 L 127.60 342.87 L 130.33 348.52 L 133.31 354.08 L 136.53 359.56 L 139.98 364.95 L 143.67 370.23 L 147.60 375.39 L 151.75 380.42 L 156.13 385.31" stroke="#5B5A8C" stroke-opacity="0.819" stroke-width="16.09" stroke-linecap="round" fill="none"></path><path d="M 156.13 385.31 L 160.73 390.06 L 165.54 394.65 L 170.57 399.08 L 175.81 403.33 L 181.24 407.39 L 186.87 411.26 L 192.69 414.93 L 198.69 418.38 L 204.86 421.62 L 211.19 424.63 L 217.69 427.40" stroke="#5B5A8C" stroke-opacity="0.839" stroke-width="16.47" stroke-linecap="round" fill="none"></path><path d="M 217.69 427.40 L 224.33 429.92 L 231.11 432.20 L 238.02 434.22 L 245.06 435.97 L 252.20 437.45 L 259.44 438.65 L 266.78 439.57 L 274.19 440.20 L 281.67 440.54 L 289.21 440.58 L 296.80 440.32" stroke="#5B5A8C" stroke-opacity="0.859" stroke-width="16.84" stroke-linecap="round" fill="none"></path><path d="M 296.80 440.32 L 304.41 439.75 L 312.05 438.88 L 319.70 437.69 L 327.34 436.20 L 334.97 434.38 L 342.57 432.25 L 350.13 429.81 L 357.64 427.04 L 365.08 423.96 L 372.43 420.57 L 379.70 416.86" stroke="#5B5A8C" stroke-opacity="0.879" stroke-width="17.22" stroke-linecap="round" fill="none"></path><path d="M 379.70 416.86 L 386.86 412.84 L 393.89 408.50 L 400.80 403.87 L 407.56 398.92 L 414.16 393.68 L 420.59 388.15 L 426.84 382.32 L 432.88 376.21 L 438.72 369.82 L 444.34 363.16 L 449.72 356.24" stroke="#5B5A8C" stroke-opacity="0.899" stroke-width="17.61" stroke-linecap="round" fill="none"></path><path d="M 449.72 356.24 L 454.86 349.07 L 459.73 341.64 L 464.34 333.98 L 468.67 326.09 L 472.71 317.98 L 476.45 309.66 L 479.87 301.14 L 482.98 292.44 L 485.75 283.56 L 488.18 274.52 L 490.27 265.33 L 492.00 256.00" stroke="#5B5A8C" stroke-opacity="0.920" stroke-width="18.00" stroke-linecap="round" fill="none"></path></g>
  <circle cx="115.52" cy="115.52" r="18.48" fill="url(#wg_wlt)"></circle>
  <circle cx="115.52" cy="115.52" r="7.9799999999999995" fill="#F4C79A"></circle>
  <text class="wm" x="248" y="158">driftless</text>
</svg>